<svg width="19" height="18" viewBox="0 0 19 18" fill="none" xmlns="http://www.w3.org/2000/svg">
<path d="M9.87305 3H5.20638C4.85276 3 4.51362 3.14048 4.26357 3.39052C4.01352 3.64057 3.87305 3.97971 3.87305 4.33333V13.6667C3.87305 14.0203 4.01352 14.3594 4.26357 14.6095C4.51362 14.8595 4.85276 15 5.20638 15H14.5397C14.8933 15 15.2325 14.8595 15.4825 14.6095C15.7326 14.3594 15.873 14.0203 15.873 13.6667V9" stroke="#020817" stroke-width="1.33333" stroke-linecap="round" stroke-linejoin="round"/>
<path d="M14.1237 2.75003C14.3889 2.48481 14.7486 2.33582 15.1237 2.33582C15.4988 2.33582 15.8585 2.48481 16.1237 2.75003C16.3889 3.01525 16.5379 3.37496 16.5379 3.75003C16.5379 4.1251 16.3889 4.48481 16.1237 4.75003L9.8737 11L7.20703 11.6667L7.8737 9.00003L14.1237 2.75003Z" stroke="#020817" stroke-width="1.33333" stroke-linecap="round" stroke-linejoin="round"/>
</svg>
