<svg width="19" height="19" viewBox="0 0 19 19" fill="none" xmlns="http://www.w3.org/2000/svg">
<path d="M7.6123 5.01257H7.86496C8.0484 5.01257 8.14019 5.01257 8.2265 5.0333C8.30303 5.05167 8.3765 5.08205 8.4436 5.12317C8.51927 5.16954 8.58424 5.23451 8.71387 5.36414L11.0109 7.66119C11.1406 7.7909 11.2051 7.8554 11.2515 7.93109C11.2926 7.99819 11.3234 8.07154 11.3418 8.14807C11.3623 8.2335 11.3623 8.32422 11.3623 8.50394V14.0126M7.6123 5.01257H4.31201C3.89197 5.01257 3.68216 5.01257 3.52173 5.09432C3.38061 5.16622 3.26595 5.28088 3.19405 5.422C3.1123 5.58243 3.1123 5.79261 3.1123 6.21265V15.0626C3.1123 15.4827 3.1123 15.6924 3.19405 15.8528C3.26595 15.994 3.38061 16.109 3.52173 16.1809C3.68201 16.2626 3.89157 16.2626 4.3108 16.2626L10.1631 16.2626C10.5823 16.2626 10.7927 16.2626 10.9529 16.1809C11.0941 16.109 11.2084 15.9941 11.2803 15.853C11.362 15.6926 11.3623 15.4825 11.3623 15.0625V14.0126M7.6123 5.01257V7.56257C7.6123 7.98261 7.6123 8.19249 7.69405 8.35292C7.76595 8.49404 7.88061 8.609 8.02173 8.68091C8.18201 8.76257 8.39156 8.76257 8.81078 8.76257H11.362M8.3623 5.01265V3.96265C8.3623 3.54261 8.3623 3.33243 8.44405 3.172C8.51595 3.03088 8.63061 2.91622 8.77173 2.84432C8.93216 2.76257 9.14197 2.76257 9.56201 2.76257H12.8623M12.8623 2.76257H13.115C13.2984 2.76257 13.3902 2.76257 13.4765 2.7833C13.553 2.80167 13.6265 2.83205 13.6936 2.87317C13.7693 2.91953 13.8342 2.98451 13.9639 3.11414L16.2609 5.41119C16.3906 5.54091 16.4551 5.6054 16.5015 5.68109C16.5426 5.74819 16.5734 5.82154 16.5918 5.89807C16.6123 5.98351 16.6123 6.07421 16.6123 6.25394V12.8125C16.6123 13.2325 16.612 13.4426 16.5303 13.603C16.4584 13.7441 16.3445 13.859 16.2034 13.9309C16.0431 14.0126 15.833 14.0126 15.4138 14.0126H11.3623M12.8623 2.76257V5.31257C12.8623 5.73261 12.8623 5.94249 12.944 6.10292C13.016 6.24404 13.1306 6.359 13.2717 6.43091C13.432 6.51257 13.6416 6.51257 14.0608 6.51257H16.612" stroke="#1C1C1C" stroke-linecap="round" stroke-linejoin="round"/>
</svg>
