<svg width="19" height="19" viewBox="0 0 19 19" fill="none" xmlns="http://www.w3.org/2000/svg">
<path d="M8.60578 3.60773C8.92558 2.29042 10.799 2.29042 11.1188 3.60773C11.3254 4.4587 12.3004 4.86253 13.0482 4.40689C14.2058 3.70154 15.5305 5.02628 14.8252 6.18389C14.3695 6.93169 14.7734 7.90663 15.6243 8.11322C16.9416 8.43302 16.9416 10.3065 15.6243 10.6263C14.7734 10.8329 14.3695 11.8078 14.8252 12.5556C15.5305 13.7132 14.2058 15.038 13.0482 14.3326C12.3004 13.877 11.3254 14.2808 11.1188 15.1318C10.799 16.4491 8.92558 16.4491 8.60578 15.1318C8.39919 14.2808 7.42425 13.877 6.67644 14.3326C5.51883 15.038 4.1941 13.7132 4.89944 12.5556C5.35509 11.8078 4.95125 10.8329 4.10029 10.6263C2.78298 10.3065 2.78298 8.43302 4.10029 8.11322C4.95125 7.90663 5.35509 6.93169 4.89944 6.18389C4.1941 5.02628 5.51883 3.70154 6.67644 4.40689C7.42425 4.86253 8.39919 4.4587 8.60578 3.60773Z" stroke="#3F3F46" stroke-width="1.2" stroke-linecap="round" stroke-linejoin="round"/>
<path d="M12.1123 9.36975C12.1123 10.6124 11.1049 11.6198 9.8623 11.6198C8.61966 11.6198 7.6123 10.6124 7.6123 9.36975C7.6123 8.12711 8.61966 7.11975 9.8623 7.11975C11.1049 7.11975 12.1123 8.12711 12.1123 9.36975Z" stroke="#3F3F46" stroke-width="1.2" stroke-linecap="round" stroke-linejoin="round"/>
</svg>
