<svg width="19" height="19" viewBox="0 0 19 19" fill="none" xmlns="http://www.w3.org/2000/svg">
<path d="M7.6123 14.7626V10.2626C7.6123 9.43415 6.94073 8.76257 6.1123 8.76257H4.6123C3.78388 8.76257 3.1123 9.43415 3.1123 10.2626V14.7626C3.1123 15.591 3.78388 16.2626 4.6123 16.2626H6.1123C6.94073 16.2626 7.6123 15.591 7.6123 14.7626ZM7.6123 14.7626V7.26257C7.6123 6.43415 8.28388 5.76257 9.1123 5.76257H10.6123C11.4407 5.76257 12.1123 6.43415 12.1123 7.26257V14.7626M7.6123 14.7626C7.6123 15.591 8.28388 16.2626 9.1123 16.2626H10.6123C11.4407 16.2626 12.1123 15.591 12.1123 14.7626M12.1123 14.7626V4.26257C12.1123 3.43415 12.7839 2.76257 13.6123 2.76257H15.1123C15.9407 2.76257 16.6123 3.43415 16.6123 4.26257V14.7626C16.6123 15.591 15.9407 16.2626 15.1123 16.2626H13.6123C12.7839 16.2626 12.1123 15.591 12.1123 14.7626Z" stroke="#3F3F46" stroke-width="1.2" stroke-linecap="round" stroke-linejoin="round"/>
</svg>
